<svg xmlns="http://www.w3.org/2000/svg" viewBox="0 0 941.08 633.53" class="seat-map-js">
    <defs>
        <style id="seatmap-dynamic-styles">
            .seat-map-js #section-ACTIVE_SECTION_IDENTIFIER-number {
                fill: #482640;
            }
            .seat-map-js #section-ACTIVE_SECTION_IDENTIFIER-bg {
                fill: #F17ED6;
                stroke: #D971C1;
            }
        </style>
        <style>
            .seat-map-js * {
                font-family: -apple-system, BlinkMacSystemFont, "Segoe UI", Roboto, "Helvetica Neue", Arial, "Noto Sans", sans-serif, "Apple Color Emoji", "Segoe UI Emoji", "Segoe UI Symbol", "Noto Color Emoji";
            }
            .seat-map-js .section {
                fill: #edf2f7;
                stroke: #e2e8f0;
            }
            .seat-map-js .section-number {
                font-weight: bold;
                fill: #4a5568;
                font-size: 20px;
            }
            .seat-map-js #stage {
                fill: #333;
            }
            .seat-map-js #stage-text {
                font-weight: bold;
                font-size: 20px;
                fill: #fff;
                letter-spacing: 0.02em;
            }
            .seat-map-js .disabled-section {
                fill: #f7fafc;
            }
        </style>
    </defs>
    <title>
        Rod Laver Arena
    </title>
    <polygon class="disabled-section" points="169.88 490.15 151.66 518.62 172.16 530.87 196.49 538.17 202.48 505.61 188.26 500.18 169.88 490.15"/>
    <polyline class="disabled-section" points="246.45 508.79 247.38 542.23 209.03 541.35 199.48 539.1 206.41 505.24 226.43 507.86 246.45 507.86"/>
    <rect class="disabled-section" x="251.12" y="507.86" width="42.1" height="33.93"/>
    <polygon class="disabled-section" points="323.35 507.86 297.15 507.86 296.87 543.12 316.02 543.12 343.18 537.98 336.82 504.38 323.35 507.86"/>
    <polygon class="disabled-section" points="391.83 517.77 372.56 489.71 340 504.38 347.67 536.86 370.5 530.31 391.83 517.77"/>
    <polygon class="disabled-section" points="381.26 550.81 407.55 613.2 443.66 594.49 453.2 585.13 408.29 528.44 394.45 536.67 397.07 541.79 381.26 550.81"/>
    <polygon class="disabled-section" points="348.98 628.91 340 557.16 346.17 557.16 374.8 547.71 404.14 614.69 359.08 628.73 348.98 628.91"/>
    <polygon class="disabled-section" points="313.99 564.92 296.87 565.3 296.03 632.09 316.02 633.03 345.19 628.96 336.82 558 313.99 559.31 313.99 564.92"/>
    <polygon class="disabled-section" points="291.54 632.56 251.12 632.56 251.87 559.31 291.54 559.31 291.54 632.56"/>
    <polygon class="disabled-section" points="230.17 564.17 247.76 564.92 246.91 632.56 226.43 632.56 198.36 629.66 207.38 557.16 229.79 559.31 230.17 564.17"/>
    <polygon class="disabled-section" points="204.09 557.16 194.43 628.82 181.9 628.82 140.54 615.25 167.68 548.08 194.43 557.16 204.09 557.16"/>
    <polygon class="disabled-section" points="146.34 542.66 161.91 552.62 135.49 613.38 102 595.94 90.21 585.5 134.18 528.44 149.9 537.42 146.34 542.66"/>
    <polyline class="disabled-section" points="484.07 556.78 475.84 567.54 456.94 582.51 411.66 524.83 483.2 556.4"/>
    <polygon class="disabled-section" points="66.26 566.79 86.1 581.67 131.38 524.83 58.41 556.41 66.26 566.79"/>

    <polygon class="section" points="240 239.96 255.17 254.51 255.17 361.43 192.45 361.43 192.45 212.72 216.6 188.29 240 187.99 240 239.96"/>
    <polygon class="section" points="351.66 212.72 351.66 361.43 289.98 361.43 289.67 254.51 304.87 239.96 304.87 187.99 329.11 187.99 351.66 212.72"/>

    <rect class="section" id="section-1-bg" x="244.46" y="91.66" width="57.36" height="88.67"/>
    <text class="section-number" id="section-1-number" transform="translate(265.45 140.49)">
        1
    </text>
    <polygon class="section" id="section-2-bg" points="372.62 101.94 336.5 185.03 321.7 180.32 304.87 180.82 304.87 91.66 326.46 91.66 372.62 101.94"/>
    <text class="section-number" id="section-2-number" transform="translate(320.67 142)">
        2
    </text>
    <polygon class="section" id="section-3-bg" points="443.04 175.19 448.96 195.25 361.11 213.54 339.84 186.53 374.36 105.64 378.36 105.11 409.05 125.52 421.42 140.5 380.11 171.19 384.12 175.9 425.43 144.69 443.04 175.19"/>
    <text class="section-number" id="section-3-number" transform="translate(382.12 178.79)">
        3
    </text>
    <polygon class="section" id="section-4-bg" points="450.71 200.03 453.67 225.4 453.5 254.51 361.98 254.51 360.58 243.19 371.39 243.19 370.17 228.53 360.58 228.88 360.76 216.85 450.71 200.03"/>
    <text class="section-number" id="section-4-number" transform="translate(397.79 243.18)">
        4
    </text>
    <polygon class="section" id="section-5-bg" points="360.67 258.52 453.5 258.52 453.5 315.35 360.58 315.35 360.67 258.52"/>
    <text class="section-number" id="section-5-number" transform="translate(400.77 300.8)">
        5
    </text>
    <polygon class="section" id="section-6-bg" points="453.58 320.37 359.89 320.37 360.58 375.83 453.58 376.01 453.58 320.37"/>
    <text class="section-number" id="section-6-number" transform="translate(400.77 359.74)">
        6
    </text>
    <polyline class="section" id="section-7-bg" points="360.24 388.81 360.24 381.31 452.8 380.63 449.73 433.96 361.11 415.38 360.24 414.94 360.24 404.14 370.48 403.29 369.8 392.38 370.14 391.52 361.11 389.49"/>
    <text class="section-number" id="section-7-number" transform="translate(400.77 415.53)">
        7
    </text>
    <polyline class="section" id="section-8-bg" points="358.39 425.68 383.78 435.65 370.14 454.59 391.28 476.06 376.28 487.48 392.98 514.41 407.64 505.2 420.25 493.44 428.43 483.73 440.36 465.32 449.9 438.4 360.94 418.97 358.39 424.68"/>
    <text class="section-number" id="section-8-number" transform="translate(397.79 462.31)">
        8
    </text>
    <polyline class="section" id="section-12-bg" points="168.31 485.3 151.44 512.16 140.24 504.69 125.58 491.06 110.25 471.8 104.11 460.21 95.25 437.37 183.79 418.31 185.84 422.9 160.61 432.89 174.21 452.38 153.41 474.33 167.41 484.97"/>
    <text class="section-number" id="section-12-number" transform="translate(121.81 460.83)">
        12
    </text>
    <polygon class="section" id="section-13-bg" points="91.87 379.66 183.71 379.17 183.87 390.14 175.68 390.47 175.19 403.74 183.79 403.9 183.79 415.53 94.61 433.87 91.17 410.45 91.87 379.66"/>
    <text class="section-number" id="section-13-number" transform="translate(123.5 412.18)">
        13
    </text>
    <polygon class="section" id="section-14-bg" points="185.05 376.88 185.05 318.84 91.87 319.01 91.87 376.88 185.05 376.88"/>
    <text class="section-number" id="section-14-number" transform="translate(123.5 358.12)">
        14
    </text>
    <polygon class="section" id="section-15-bg" points="182.08 316.22 91.44 315.87 92.31 259.39 182.43 259.22 182.08 316.22"/>
    <text class="section-number" id="section-15-number" transform="translate(123.5 299.18)">
        15
    </text>
    <polygon class="section" id="section-16-bg" points="184.17 230.46 173.37 230.46 174.41 243.53 185.57 244.4 182.78 255.03 91.61 253.64 93 207.27 95.1 198.38 185.57 218.6 184.17 230.46"/>
    <text class="section-number" id="section-16-number" transform="translate(123.5 243.61)">
        16
    </text>
    <polygon class="section" id="section-17-bg" points="185.17 213.24 97.32 192.85 106.03 170.88 121.37 143.34 161.99 176.11 165.48 172.97 125.91 137.59 145.08 119.81 170.18 103.07 206.09 186.92 195.98 194.07 185.17 213.24"/>
    <text class="section-number" id="section-17-number" transform="translate(137.93 177.79)">
        17
    </text>
    <polygon class="section" id="section-18-bg" points="240 180.83 239.78 91.65 201.78 93.96 174.76 102.16 210.15 184.44 223.05 180.83 240 180.83"/>
    <text class="section-number" id="section-18-number" transform="translate(200.48 144.08)">
        18
    </text>
    <rect class="section" id="section-20-bg" x="252.42" y="1.11" width="39.39" height="72.37"/>
    <text class="section-number" id="section-20-number" transform="translate(254.17 45.39)">
        20
    </text>
    <polygon class="section" id="section-21-bg" points="297.27 1.72 297.27 67.98 313.8 67.98 313.8 74.09 336.39 76.76 345.86 4.62 319.29 1.11 297.27 1.72"/>
    <text class="section-number" id="section-21-number" transform="translate(303.26 46.95)">
        21
    </text>
    <polygon class="section" id="section-55-bg" points="248.58 1.72 248.58 67.98 231.13 67.98 231.13 73.48 208.23 74.7 199.37 4.62 225.63 0.5 248.58 1.72"/>
    <text class="section-number" id="section-55-number" transform="translate(206.09 47.39)">
        55
    </text>
    <polygon class="section" id="section-54-bg" points="195.01 4.47 182.26 4.78 140.68 19.13 167.84 84.78 204.53 75.01 195.01 4.47"/>
    <text class="section-number" id="section-54-number" transform="translate(155.78 55.66)">
        54
    </text>
    <polygon class="section" id="section-53-bg" points="91.87 48.14 134.49 105.38 142.8 99.44 150.13 96.79 146.46 89.97 162.73 82.34 137.19 20.35 101.11 38.67 91.87 48.14"/>
    <text class="section-number" id="section-53-number" transform="translate(110.85 72.7)">
        53
    </text>
    <polygon class="section" id="section-52-bg" points="51.95 86.61 107.99 133.01 119.59 117.76 131.5 107.99 87.26 50.58 66.15 67.98 51.95 86.61"/>
    <text class="section-number" id="section-52-number" transform="translate(74.19 104.38)">
        52
    </text>
    <polygon class="section" id="section-51-bg" points="21.26 136.24 82.64 162.65 91.87 147.99 96.38 149.44 105.85 135.99 48.75 89.66 37.91 102.18 21.26 136.24"/>
    <text class="section-number" id="section-51-number" transform="translate(48.95 143.49)">
        51
    </text>
    <polygon class="section" id="section-50-bg" points="86.31 168.75 75.62 198.34 75.62 201.67 3.86 195.01 5.08 182.63 19.43 139.44 86.31 168.75"/>
    <text class="section-number" id="section-50-number" transform="translate(25.71 187.99)">
        50
    </text>
    <polygon class="section" id="section-49-bg" points="74.7 228.71 68.59 230.46 68.59 243.97 73.48 243.97 73.48 248.85 0.5 248.85 0.5 224.53 3.86 198.68 76.53 204.66 74.7 228.71"/>
    <text class="section-number" id="section-49-number" transform="translate(18.32 235.86)">
        49
    </text>
    <polygon class="section" id="section-48-bg" points="0.5 290.89 38.36 290.59 74.09 291.2 75.31 252.72 0.5 252.11 0.5 290.89"/>
    <text class="section-number" id="section-48-number" transform="translate(16.82 283.18)">
        48
    </text>
    <polyline class="section" id="section-47-bg" points="69.82 337.31 71.04 297 0.5 297 0.5 337.31 68.59 337.31"/>
    <text class="section-number" id="section-47-number" transform="translate(16.82 328.96)">
        47
    </text>
    <rect class="section" id="section-46-bg" x="0.5" y="343.11" width="72.98" height="38.19"/>
    <text class="section-number" id="section-46-number" transform="translate(16.82 373.63)">
        46
    </text>
    <polygon class="section" id="section-45-bg" points="3.25 435.29 75.62 427.84 74.7 402.65 68.59 403.71 68.59 385.05 0.5 385.05 0.5 412.12 3.25 435.29"/>
    <text class="section-number" id="section-45-number" transform="translate(16.82 421.69)">
        45
    </text>
    <polygon class="section" id="section-44-bg" points="3.86 452.86 3.86 439.38 77.45 432.57 77.75 438.77 87.83 467.01 17.91 494.35 3.86 452.86"/>
    <text class="section-number" id="section-44-number" transform="translate(23.71 467.61)">
        44
    </text>
    <polygon class="section" id="section-43-bg" points="91.52 485.67 82.79 472.6 20.35 498.73 39.43 532.74 48.14 543.12 105.85 499.32 95.77 483.27 91.52 485.67"/>
    <text class="section-number" id="section-43-number" transform="translate(44.08 512.41)">
        43
    </text>
    <polygon class="section" id="section-33-bg" points="509.15 529.38 496.4 543.42 438.08 498.73 448.15 483.27 453.5 485.71 461.28 471.36 523.27 497.88 509.15 529.38"/>
    <text class="section-number" id="section-33-number" transform="translate(469.53 514.41)">
        33
    </text>
    <polygon class="section" id="section-32-bg" points="539.25 451.86 525.71 493.35 458.54 465.32 468.76 431.28 539.76 439.3 539.25 451.86"/>
    <text class="section-number" id="section-32-number" transform="translate(486.39 468.61)">
        32
    </text>
    <polygon class="section" id="section-31-bg" points="475.33 385.05 475.33 403.71 469.53 403.9 468 427.84 539.46 434.72 542.97 400.21 542.97 384.65 475.33 385.05"/>
    <text class="section-number" id="section-31-number" transform="translate(493.92 420.25)">
        31
    </text>
    <rect class="section" id="section-30-bg" x="469.53" y="343.11" width="73.44" height="38.19"/>
    <text class="section-number" id="section-30-number" transform="translate(493.92 372.91)">
        30
    </text>
    <rect class="section" id="section-29-bg" x="475.33" y="297.92" width="67.64" height="38.17"/>
    <text class="section-number" id="section-29-number" transform="translate(494.92 329.74)">
        29
    </text>
    <polygon class="section" id="section-28-bg" points="469.53 252.42 542.97 252.11 542.97 291.5 469.53 291.5 469.53 252.42"/>
    <text class="section-number" id="section-28-number" transform="translate(493.92 282.45)">
        28
    </text>
    <polygon class="section" id="section-27-bg" points="543.12 228.71 540.37 198.8 467.08 207.23 469.53 228.71 475.33 228.71 475.33 248.85 542.81 249.72 543.12 228.71"/>
    <text class="section-number" id="section-27-number" transform="translate(494.92 239.23)">
        27
    </text>
    <polygon class="section" id="section-26-bg" points="524.8 142 457.55 168.14 467.08 195.93 467.08 201.67 539.15 195.93 539.15 182.87 524.8 142"/>
    <text class="section-number" id="section-26-number" transform="translate(491.16 187.27)">
        26
    </text>
    <polygon class="section" id="section-25-bg" points="447.77 149.44 438.38 134.55 495.79 91.65 507.09 102.41 523.88 135.99 461.59 162.34 453.5 146.08 447.77 149.44"/>
    <text class="section-number" id="section-25-number" transform="translate(473.62 142)">
        25
    </text>
    <polygon class="section" id="section-24-bg" points="457.01 51.95 412.73 108.29 422.81 116.84 434.87 131.19 493.04 86.55 477.16 67.98 457.01 51.95"/>
    <text class="section-number" id="section-24-number" transform="translate(435.24 100.21)">
        24
    </text>
    <polygon class="section" id="section-23-bg" points="453.5 48.75 409.07 105.38 394.93 95.92 396.55 91.65 382.12 81.45 407.74 20.65 442.05 37.3 453.5 48.75"/>
    <text class="section-number" id="section-23-number" transform="translate(398.04 70.48)">
        23
    </text>
    <polygon class="section" id="section-22-bg" points="350.48 4.62 341.13 76.76 376.36 86.15 404.78 18.21 361.28 4.62 350.48 4.62"/>
    <text class="section-number" id="section-22-number" transform="translate(350.1 55.66)">
        22
    </text>
    <polygon class="section" id="section-42-bg" points="50.55 546.02 108.55 502.06 118.75 515.34 131.38 524.83 58.41 556.41 50.55 546.02"/>
    <text class="section-number" id="section-42-number" transform="translate(71.04 548.08)">
        42
    </text>
    <polygon class="section" id="section-34-bg" points="492.3 546.77 484.07 556.78 411.66 524.83 423.07 516.65 435.24 502.06 492.3 546.77"/>
    <text class="section-number" id="section-34-number" transform="translate(430.26 550.67)">
        34
    </text>

    <polygon id="stage" points="316.02 433.87 276.83 433.87 275.87 252.11 267.73 252.11 267.25 433.87 221.28 433.87 221.28 433.97 221.28 479.62 316.02 479.62 316.02 433.87"/>
    <text id="stage-text" transform="translate(235 463)">
        STAGE
    </text>
    <polygon class="section" points="289.72 378.54 340.86 378.54 340.86 415.53 289.67 415.53 289.72 378.54"/>
    <polygon class="section" points="204.03 379.34 255.17 379.34 255.17 416.34 203.98 416.34 204.03 379.34"/>
</svg>
